<svg width="1622" height="762" viewBox="0 0 1622 762" fill="none" xmlns="http://www.w3.org/2000/svg">
<g clip-path="url(#clip0_214_1115)">
<path opacity="0.2" d="M1472.78 793.737C1472.78 627.137 1409.37 466.782 1295.42 345.243C1181.47 223.704 1025.54 150.093 859.28 139.362C693.026 128.63 528.92 181.583 400.293 287.465C271.667 393.346 188.164 544.218 166.746 709.436L201.716 713.969C221.982 557.636 300.994 414.878 422.704 314.69C544.414 214.502 699.695 164.397 857.009 174.551C1014.32 184.705 1161.87 254.357 1269.69 369.361C1377.51 484.364 1437.52 636.096 1437.52 793.737H1472.78Z" fill="#6346A9"/>
<path opacity="0.5" d="M655.318 158.256C493.864 199.344 354.102 300.347 264.42 440.75C174.738 581.152 141.86 750.426 172.463 914.192C203.066 1077.96 294.857 1223.93 429.191 1322.47C563.525 1421.01 730.33 1464.73 895.727 1444.74L891.495 1409.73C734.993 1428.65 577.158 1387.28 450.048 1294.04C322.937 1200.8 236.083 1062.67 207.125 907.714C178.168 752.755 209.278 592.584 294.137 459.732C378.997 326.879 511.243 231.308 664.015 192.429L655.318 158.256Z" fill="#9370E6"/>
<g opacity="0.2">
<path d="M1349.94 793.737C1349.94 658.346 1298.41 528.03 1205.81 429.259C1113.2 330.487 986.478 270.666 851.368 261.945C716.258 253.223 582.893 296.257 478.362 382.304C373.831 468.351 305.971 590.96 288.565 725.228L325.666 730.038C341.85 605.196 404.946 491.194 502.139 411.188C599.331 331.182 723.333 291.17 848.958 299.279C974.583 307.388 1092.41 363.009 1178.51 454.847C1264.61 546.684 1312.53 667.851 1312.53 793.737H1349.94Z" fill="#6346A9"/>
<path d="M1349.94 793.737C1349.94 658.346 1298.41 528.03 1205.81 429.259C1113.2 330.487 986.478 270.666 851.368 261.945C716.258 253.223 582.893 296.257 478.362 382.304C373.831 468.351 305.971 590.96 288.565 725.228L325.666 730.038C341.85 605.196 404.946 491.194 502.139 411.188C599.331 331.182 723.333 291.17 848.958 299.279C974.583 307.388 1092.41 363.009 1178.51 454.847C1264.61 546.684 1312.53 667.851 1312.53 793.737H1349.94Z" fill="#6346A9"/>
</g>
<g opacity="0.2">
<path d="M930.916 273.147C798.652 244.215 660.334 266.712 544.056 336.069C427.778 405.425 342.259 516.441 304.868 646.567C267.477 776.693 281.017 916.172 342.74 1036.68C404.462 1157.18 509.739 1249.67 637.186 1295.37L649.813 1260.15C531.313 1217.66 433.427 1131.66 376.038 1019.62C318.649 907.577 306.059 777.889 340.825 656.899C375.591 535.908 455.106 432.687 563.221 368.199C671.336 303.712 799.943 282.794 922.922 309.695L930.916 273.147Z" fill="#6346A9"/>
<path d="M930.916 273.147C798.652 244.215 660.334 266.712 544.056 336.069C427.778 405.425 342.259 516.441 304.868 646.567C267.477 776.693 281.017 916.172 342.74 1036.68C404.462 1157.18 509.739 1249.67 637.186 1295.37L649.813 1260.15C531.313 1217.66 433.427 1131.66 376.038 1019.62C318.649 907.577 306.059 777.889 340.825 656.899C375.591 535.908 455.106 432.687 563.221 368.199C671.336 303.712 799.943 282.794 922.922 309.695L930.916 273.147Z" fill="#9E83E2"/>
</g>
<g opacity="0.2">
<path d="M1222.29 793.737C1222.29 690.778 1183.1 591.679 1112.68 516.568C1042.26 441.457 945.891 395.966 843.145 389.334C740.4 382.702 638.983 415.426 559.492 480.861C480 546.296 428.396 639.534 415.16 741.639L448.003 745.897C460.157 652.136 507.545 566.518 580.539 506.431C653.534 446.343 746.664 416.293 841.012 422.383C935.361 428.473 1023.85 470.247 1088.52 539.219C1153.18 608.192 1189.17 699.192 1189.17 793.737H1222.29Z" fill="#6346A9"/>
<path d="M1222.29 793.737C1222.29 690.778 1183.1 591.679 1112.68 516.568C1042.26 441.457 945.891 395.966 843.145 389.334C740.4 382.702 638.983 415.426 559.492 480.861C480 546.296 428.396 639.534 415.16 741.639L448.003 745.897C460.157 652.136 507.545 566.518 580.539 506.431C653.534 446.343 746.664 416.293 841.012 422.383C935.361 428.473 1023.85 470.247 1088.52 539.219C1153.18 608.192 1189.17 699.192 1189.17 793.737H1222.29Z" fill="#6346A9"/>
</g>
<g opacity="0.2">
<path d="M1165.82 587.403C1113.4 498.789 1029.22 433.451 930.364 404.659C831.513 375.868 725.409 385.782 633.602 432.388C541.795 478.994 471.171 558.797 436.072 655.588C400.973 752.38 404.031 858.902 444.627 953.52L475.062 940.462C437.784 853.577 434.975 755.76 467.206 666.878C499.436 577.997 564.29 504.716 648.593 461.919C732.897 419.121 830.33 410.018 921.103 436.456C1011.88 462.895 1089.18 522.893 1137.32 604.265L1165.82 587.403Z" fill="#6346A9"/>
<path d="M1165.82 587.403C1113.4 498.789 1029.22 433.451 930.364 404.659C831.513 375.868 725.409 385.782 633.602 432.388C541.795 478.994 471.171 558.797 436.072 655.588C400.973 752.38 404.031 858.902 444.627 953.52L475.062 940.462C437.784 853.577 434.975 755.76 467.206 666.878C499.436 577.997 564.29 504.716 648.593 461.919C732.897 419.121 830.33 410.018 921.103 436.456C1011.88 462.895 1089.18 522.893 1137.32 604.265L1165.82 587.403Z" fill="#100727"/>
</g>
</g>
<defs>
<clipPath id="clip0_214_1115">
<rect width="1622" height="762" fill="white"/>
</clipPath>
</defs>
</svg>
